{
  "asset": {
    "version": "2.0",
    "generator": "THREE.GLTFExporter"
  },
  "scenes": [
    {
      "nodes": [
        0
      ]
    }
  ],
  "scene": 0,
  "nodes": [
    {
      "children": [
        1,
        2,
        3,
        4,
        5,
        6,
        7,
        8,
        9,
        10
      ],
      "matrix": [
        0.01,
        0,
        0,
        0,
        0,
        0.01,
        0,
        0,
        0,
        0,
        0.01,
        0,
        0,
        0,
        0,
        1
      ]
    },
    {
      "matrix": [
        0.43301270189221935,
        0.24999999999999997,
        0,
        0,
        -0.24999999999999997,
        0.43301270189221935,
        0,
        0,
        0,
        0,
        0.5,
        0,
        619.9474563863439,
        306.02621832220956,
        -75.01170097890792,
        1
      ],
      "name": "Cube 2",
      "mesh": 0
    },
    {
      "matrix": [
        0.7071067811865475,
        0.7071067811865476,
        0,
        0,
        -0.7071067811865476,
        0.7071067811865475,
        0,
        0,
        0,
        0,
        1,
        0,
        -90.4324885801388,
        676.5483342191953,
        504.0266632779055,
        1
      ],
      "name": "Cube",
      "mesh": 1
    },
    {
      "matrix": [
        3.378157708279485,
        0,
        0,
        0,
        0,
        3.37815770827975,
        7.501016937094262e-16,
        0,
        0,
        -7.501016937094262e-16,
        3.37815770827975,
        0,
        0,
        -95.19697183690623,
        107.67078700410786,
        1
      ],
      "name": "Text",
      "mesh": 2
    },
    {
      "matrix": [
        0.801045071280453,
        -0.4470812201535864,
        -0.39805172573834474,
        0,
        0.4873547695624601,
        0.8732040589602876,
        0,
        0,
        0.3475803825908698,
        -0.19399240707115056,
        0.9173629726758791,
        0,
        0,
        0,
        0,
        1
      ],
      "name": "Directional Light",
      "extensions": {
        "KHR_lights_punctual": {
          "light": 0
        }
      }
    },
    {
      "matrix": [
        1,
        0,
        0,
        0,
        0,
        2.2204460492503727e-16,
        -1.000000000000027,
        0,
        0,
        1.000000000000027,
        2.2204460492503727e-16,
        0,
        -157.530489073848,
        -359.7535341940889,
        229.00000000000094,
        1
      ],
      "name": "floor",
      "mesh": 3
    },
    {
      "matrix": [
        1,
        0,
        0,
        0,
        0,
        1,
        0,
        0,
        0,
        0,
        1,
        0,
        212.55727686596742,
        -139.67770208127533,
        142.35683930826428,
        1
      ],
      "name": "Objects"
    },
    {
      "matrix": [
        0.7071067811865481,
        0,
        -0.7071067811865469,
        0,
        -0.4082482904638624,
        0.8164965809277263,
        -0.4082482904638631,
        0,
        0.5773502691896254,
        0.5773502691896254,
        0.5773502691896264,
        0,
        1097.4228346952818,
        1232.1432056947701,
        1448.8983744817042,
        1
      ],
      "camera": 0
    },
    {
      "matrix": [
        1,
        0,
        0,
        0,
        0,
        1,
        0,
        0,
        0,
        0,
        1,
        0,
        0,
        1,
        0,
        1
      ],
      "name": "Default Ambient Light"
    },
    {
      "matrix": [
        1.5737661716642017,
        1.2414826067852284e-30,
        -2.7180542376477593e-15,
        0,
        -2.7180542376477774e-15,
        1.7472314391577953e-15,
        -1.5737661716642124,
        0,
        1.707038584329705e-30,
        1.5737661716642164,
        1.7472314391577996e-15,
        0,
        -4000,
        -358.5930292565637,
        447.12462975778095,
        1
      ]
    },
    {
      "matrix": [
        -3.14501659048401e-15,
        1.1357004354525593e-15,
        -1.5737661716642017,
        0,
        -1.573766171664202,
        1.7472314391577836e-16,
        3.2323781624419e-15,
        0,
        8.736157195788929e-17,
        1.573766171664204,
        1.2230620074104501e-15,
        0,
        449.1216953239056,
        -358.5930292565668,
        4000,
        1
      ]
    }
  ],
  "bufferViews": [
    {
      "buffer": 0,
      "byteOffset": 0,
      "byteLength": 7200,
      "target": 34962,
      "byteStride": 12
    },
    {
      "buffer": 0,
      "byteOffset": 7200,
      "byteLength": 7200,
      "target": 34962,
      "byteStride": 12
    },
    {
      "buffer": 0,
      "byteOffset": 14400,
      "byteLength": 4800,
      "target": 34962,
      "byteStride": 8
    },
    {
      "buffer": 0,
      "byteOffset": 19200,
      "byteLength": 4296,
      "target": 34963
    },
    {
      "buffer": 0,
      "byteOffset": 23496,
      "byteLength": 80088,
      "target": 34962,
      "byteStride": 12
    },
    {
      "buffer": 0,
      "byteOffset": 103584,
      "byteLength": 80088,
      "target": 34962,
      "byteStride": 12
    },
    {
      "buffer": 0,
      "byteOffset": 183672,
      "byteLength": 53392,
      "target": 34962,
      "byteStride": 8
    },
    {
      "buffer": 0,
      "byteOffset": 237064,
      "byteLength": 52992,
      "target": 34963
    },
    {
      "buffer": 0,
      "byteOffset": 290056,
      "byteLength": 48,
      "target": 34962,
      "byteStride": 12
    },
    {
      "buffer": 0,
      "byteOffset": 290104,
      "byteLength": 48,
      "target": 34962,
      "byteStride": 12
    },
    {
      "buffer": 0,
      "byteOffset": 290152,
      "byteLength": 32,
      "target": 34962,
      "byteStride": 8
    },
    {
      "buffer": 0,
      "byteOffset": 290184,
      "byteLength": 24,
      "target": 34963
    }
  ],
  "buffers": [
    {
      "byteLength": 290208,
      "uri": "data:application/octet-stream;base64,"
    }
  ],
  "accessors": [
    {
      "bufferView": 0,
      "componentType": 5126,
      "count": 600,
      "max": [
        105.5,
        133,
        13.92595386505127
      ],
      "min": [
        -105.5,
        -133,
        -13.92595386505127
      ],
      "type": "VEC3"
    },
    {
      "bufferView": 1,
      "componentType": 5126,
      "count": 600,
      "max": [
        1,
        1,
        1
      ],
      "min": [
        -1,
        -1,
        -1
      ],
      "type": "VEC3"
    },
    {
      "bufferView": 2,
      "componentType": 5126,
      "count": 600,
      "max": [
        1,
        1
      ],
      "min": [
        0,
        0
      ],
      "type": "VEC2"
    },
    {
      "bufferView": 3,
      "componentType": 5123,
      "count": 2148,
      "max": [
        599
      ],
      "min": [
        0
      ],
      "type": "SCALAR"
    },
    {
      "bufferView": 4,
      "componentType": 5126,
      "count": 6674,
      "max": [
        242.3057403564453,
        36.4314079284668,
        33.3982048034668
      ],
      "min": [
        -219.61474609375,
        -57.52561569213867,
        0
      ],
      "type": "VEC3"
    },
    {
      "bufferView": 5,
      "componentType": 5126,
      "count": 6674,
      "max": [
        1,
        1,
        1
      ],
      "min": [
        -1,
        -1,
        -1
      ],
      "type": "VEC3"
    },
    {
      "bufferView": 6,
      "componentType": 5126,
      "count": 6674,
      "max": [
        1,
        1
      ],
      "min": [
        0,
        0
      ],
      "type": "VEC2"
    },
    {
      "bufferView": 7,
      "componentType": 5123,
      "count": 26496,
      "max": [
        6673
      ],
      "min": [
        0
      ],
      "type": "SCALAR"
    },
    {
      "bufferView": 8,
      "componentType": 5126,
      "count": 4,
      "max": [
        2500,
        2500,
        0
      ],
      "min": [
        -2500,
        -2500,
        0
      ],
      "type": "VEC3"
    },
    {
      "bufferView": 9,
      "componentType": 5126,
      "count": 4,
      "max": [
        0,
        0,
        1
      ],
      "min": [
        0,
        0,
        1
      ],
      "type": "VEC3"
    },
    {
      "bufferView": 10,
      "componentType": 5126,
      "count": 4,
      "max": [
        1,
        1
      ],
      "min": [
        0,
        0
      ],
      "type": "VEC2"
    },
    {
      "bufferView": 11,
      "componentType": 5125,
      "count": 6,
      "max": [
        3
      ],
      "min": [
        0
      ],
      "type": "SCALAR"
    }
  ],
  "meshes": [
    {
      "primitives": [
        {
          "mode": 4,
          "attributes": {
            "POSITION": 0,
            "NORMAL": 1,
            "TEXCOORD_0": 2
          },
          "extras": {
            "parameters": {
              "width": 211,
              "widthSegments": 1,
              "heightSegments": 1,
              "depthSegments": 1,
              "cornerRadius": 8,
              "cornerSegments": 8,
              "height": 266,
              "depth": 27.851907175710956,
              "type": "CubeGeometry"
            },
            "type": "CubeGeometry"
          },
          "indices": 3
        }
      ]
    },
    {
      "primitives": [
        {
          "mode": 4,
          "attributes": {
            "POSITION": 0,
            "NORMAL": 1,
            "TEXCOORD_0": 2
          },
          "extras": {
            "parameters": {
              "width": 211,
              "widthSegments": 1,
              "heightSegments": 1,
              "depthSegments": 1,
              "cornerRadius": 8,
              "cornerSegments": 8,
              "height": 266,
              "depth": 27.851907175710956,
              "type": "CubeGeometry"
            },
            "type": "CubeGeometry"
          },
          "indices": 3
        }
      ]
    },
    {
      "primitives": [
        {
          "mode": 4,
          "attributes": {
            "POSITION": 4,
            "NORMAL": 5,
            "TEXCOORD_0": 6
          },
          "extras": {
            "parameters": {
              "type": "TextGeometry",
              "width": 655.2488764191697,
              "height": 142.12668941565434,
              "depth": 33.39820647701202,
              "horizontalAlign": 3,
              "verticalAlign": 1,
              "fontSize": 134,
              "lineHeight": 1.2,
              "letterSpacing": -0.1,
              "text": "Derek",
              "textTransform": 2,
              "font": "Days One_regular",
              "extrudeBevelSize": 1,
              "extrudeBevelSegments": 1
            },
            "type": "TextGeometry"
          },
          "indices": 7
        }
      ]
    },
    {
      "primitives": [
        {
          "mode": 4,
          "attributes": {
            "POSITION": 8,
            "NORMAL": 9,
            "TEXCOORD_0": 10
          },
          "extras": {
            "parameters": {
              "width": 5000,
              "subdivisions": 12,
              "roundness": 0,
              "extrudeBevelSize": 0,
              "extrudeBevelSegments": 1,
              "windingRule": 0,
              "height": 5000,
              "type": "VectorGeometry",
              "cornerRadius": [
                0,
                0,
                0,
                0
              ],
              "cornerType": 0,
              "depth": 0,
              "shape": {
                "isClosed": true,
                "points": [
                  {
                    "id": "e23b711b-b56b-4142-9de3-05b6cf3ea393",
                    "fi": 0,
                    "data": {
                      "position": [
                        -2500,
                        2500
                      ],
                      "controlNext": {
                        "position": [
                          -2500,
                          2500
                        ]
                      },
                      "controlPrevious": {
                        "position": [
                          -2500,
                          2500
                        ]
                      },
                      "areControlsDirectionsMirrored": true,
                      "roundness": 0
                    }
                  },
                  {
                    "id": "83c7f5af-6765-4848-a4b6-16953967b241",
                    "fi": 1,
                    "data": {
                      "position": [
                        2500,
                        2500
                      ],
                      "controlNext": {
                        "position": [
                          2500,
                          2500
                        ]
                      },
                      "controlPrevious": {
                        "position": [
                          2500,
                          2500
                        ]
                      },
                      "areControlsDirectionsMirrored": true,
                      "roundness": 0
                    }
                  },
                  {
                    "id": "932cb797-4ff1-4fad-a964-2c6fe97d6f36",
                    "fi": 2,
                    "data": {
                      "position": [
                        2500,
                        -2500
                      ],
                      "controlNext": {
                        "position": [
                          2500,
                          -2500
                        ]
                      },
                      "controlPrevious": {
                        "position": [
                          2500,
                          -2500
                        ]
                      },
                      "areControlsDirectionsMirrored": true,
                      "roundness": 0
                    }
                  },
                  {
                    "id": "e362bacc-73e4-466e-821f-930369f9c9d8",
                    "fi": 3,
                    "data": {
                      "position": [
                        -2500,
                        -2500
                      ],
                      "controlNext": {
                        "position": [
                          -2500,
                          -2500
                        ]
                      },
                      "controlPrevious": {
                        "position": [
                          -2500,
                          -2500
                        ]
                      },
                      "areControlsDirectionsMirrored": true,
                      "roundness": 0
                    }
                  }
                ],
                "roundness": 0,
                "shapeHoles": []
              }
            },
            "shape": {
              "points": [
                -2500,
                2500,
                -2500,
                2500,
                -2500,
                2500,
                0,
                2500,
                2500,
                2500,
                2500,
                2500,
                2500,
                0,
                2500,
                -2500,
                2500,
                -2500,
                2500,
                -2500,
                0,
                -2500,
                -2500,
                -2500,
                -2500,
                -2500,
                -2500,
                0
              ],
              "shapeHoles": [],
              "isClosed": true,
              "roundness": 0
            },
            "type": "VectorGeometry"
          },
          "indices": 11
        }
      ]
    }
  ],
  "extensions": {
    "KHR_lights_punctual": {
      "lights": [
        {
          "name": "Directional Light",
          "color": [
            1,
            1,
            1
          ],
          "intensity": 1.213,
          "type": "directional"
        }
      ]
    }
  },
  "cameras": [
    {
      "type": "orthographic",
      "orthographic": {
        "xmag": 43.30156089730486,
        "ymag": 16.854880826014885,
        "zfar": 100000,
        "znear": 0
      }
    }
  ],
  "extensionsUsed": [
    "KHR_lights_punctual"
  ]
}